<svg width="24" height="24" viewBox="0 0 24 24" fill="none" xmlns="http://www.w3.org/2000/svg">
<path d="M22.2 5.2C21.7 4.6 21 4.2 20.2 4.2H8.4C7.8 4.2 7.4 4.6 7.4 5.2C7.4 5.8 7.8 6.2 8.4 6.2H20.1C20.3 6.2 20.5 6.3 20.5 6.4C20.6 6.6 20.7 6.8 20.6 7L19.2 13.1C19 14.1 18.1 14.8 17.1 14.8H10.7C9.7 14.8 8.9 14.2 8.6 13.2L7.8 10.7L5.7 3.8C5.2 2.1 3.7 1 2 1C1.4 1 1 1.4 1 2C1 2.6 1.4 3 2 3C2.8 3 3.6 3.6 3.8 4.4L4.5 6.7L6.7 13.8C7.2 15.6 8.8 16.8 10.7 16.8H17.3C19.3 16.8 20.9 15.4 21.4 13.5L22.8 7.4C22.9 6.7 22.7 5.9 22.2 5.2Z" fill="black"/>
<path d="M9.90005 17.7998C8.50005 17.7998 7.30005 18.9998 7.30005 20.3998C7.30005 21.7998 8.50005 22.9998 9.90005 22.9998C11.3 22.9998 12.5 21.7998 12.5 20.3998C12.5 18.9998 11.3 17.7998 9.90005 17.7998ZM9.90005 20.9998C9.60005 20.9998 9.30005 20.6998 9.30005 20.3998C9.30005 20.0998 9.60005 19.7998 9.90005 19.7998C10.2 19.7998 10.5 20.0998 10.5 20.3998C10.5 20.6998 10.2 20.9998 9.90005 20.9998Z" fill="black"/>
<path d="M17.8 17.7998C16.4 17.7998 15.2 18.9998 15.2 20.3998C15.2 21.7998 16.4 22.9998 17.8 22.9998C19.2 22.9998 20.4 21.7998 20.4 20.3998C20.4 18.9998 19.2 17.7998 17.8 17.7998ZM17.8 20.9998C17.5 20.9998 17.2 20.6998 17.2 20.3998C17.2 20.0998 17.5 19.7998 17.8 19.7998C18.1 19.7998 18.4 20.0998 18.4 20.3998C18.4 20.6998 18.1 20.9998 17.8 20.9998Z" fill="black"/>
</svg>
